<?xml version="1.0" encoding="utf-8"?>
<!-- Generator: Adobe Illustrator 22.0.0, SVG Export Plug-In . SVG Version: 6.00 Build 0)  -->
<svg version="1.1" id="Capa_1" xmlns="http://www.w3.org/2000/svg" xmlns:xlink="http://www.w3.org/1999/xlink" x="0px" y="0px"
	 viewBox="0 0 21.1 21.1" style="enable-background:new 0 0 21.1 21.1;" xml:space="preserve">
<style type="text/css">
	.st0{fill:#FFFFFF;}
	.st1{fill:#FFFFFF;stroke:#FFFFFF;stroke-width:0.5;stroke-miterlimit:10;}
</style>
<g>
	<path class="st0" d="M15.3,10.9c-0.2-0.2-0.4-0.2-0.6,0l-0.2,0.2l-0.2-0.2c-0.2-0.2-0.4-0.2-0.6,0c-0.2,0.2-0.2,0.4,0,0.6l0.2,0.2
		L13.6,12c-0.2,0.2-0.2,0.4,0,0.6c0.1,0.1,0.2,0.1,0.3,0.1c0.1,0,0.2,0,0.3-0.1l0.2-0.2l0.2,0.2c0.1,0.1,0.2,0.1,0.3,0.1
		c0.1,0,0.2,0,0.3-0.1c0.2-0.2,0.2-0.4,0-0.6L15,11.8l0.2-0.2C15.4,11.4,15.4,11.1,15.3,10.9L15.3,10.9z M15.3,10.9"/>
	<path class="st0" d="M7.3,8.3c-0.2-0.2-0.4-0.2-0.6,0L6.5,8.5L6.2,8.3c-0.2-0.2-0.4-0.2-0.6,0c-0.2,0.2-0.2,0.4,0,0.6l0.2,0.2
		L5.6,9.4c-0.2,0.2-0.2,0.4,0,0.6c0.1,0.1,0.2,0.1,0.3,0.1c0.1,0,0.2,0,0.3-0.1l0.2-0.2L6.7,10c0.1,0.1,0.2,0.1,0.3,0.1
		c0.1,0,0.2,0,0.3-0.1c0.2-0.2,0.2-0.4,0-0.6L7.1,9.2l0.2-0.2C7.5,8.7,7.5,8.5,7.3,8.3L7.3,8.3z M7.3,8.3"/>
	<path class="st1" d="M9.1,9.5c0.2,0,0.3-0.1,0.3-0.3c0-0.2-0.1-0.3-0.3-0.3C9,8.8,8.8,9,8.8,9.2C8.8,9.3,9,9.5,9.1,9.5z"/>
	<path class="st1" d="M11.8,9.5c0.2,0,0.3-0.1,0.3-0.3c0-0.2-0.1-0.3-0.3-0.3c-0.2,0-0.3,0.1-0.3,0.3C11.5,9.3,11.6,9.5,11.8,9.5z"
		/>
	<circle class="st1" cx="3.9" cy="11.8" r="0.3"/>
	<path class="st1" d="M6.5,11.5c-0.2,0-0.3,0.1-0.3,0.3c0,0.2,0.1,0.3,0.3,0.3c0.2,0,0.3-0.1,0.3-0.3C6.8,11.6,6.7,11.5,6.5,11.5z"
		/>
	<path class="st1" d="M9.1,12.1c0.2,0,0.3-0.1,0.3-0.3c0-0.2-0.1-0.3-0.3-0.3c-0.2,0-0.3,0.1-0.3,0.3C8.8,12,9,12.1,9.1,12.1z"/>
	<path class="st1" d="M11.8,12.1c0.2,0,0.3-0.1,0.3-0.3c0-0.2-0.1-0.3-0.3-0.3c-0.2,0-0.3,0.1-0.3,0.3C11.5,12,11.6,12.1,11.8,12.1z
		"/>
	<path class="st1" d="M17.1,11.5c-0.2,0-0.3,0.1-0.3,0.3c0,0.2,0.1,0.3,0.3,0.3c0.2,0,0.3-0.1,0.3-0.3
		C17.4,11.6,17.2,11.5,17.1,11.5z"/>
	<path class="st1" d="M14.4,9.5c0.2,0,0.3-0.1,0.3-0.3c0-0.2-0.1-0.3-0.3-0.3c-0.2,0-0.3,0.1-0.3,0.3C14.1,9.3,14.2,9.5,14.4,9.5z"
		/>
	<path class="st1" d="M17.1,9.5c0.2,0,0.3-0.1,0.3-0.3c0-0.2-0.1-0.3-0.3-0.3c-0.2,0-0.3,0.1-0.3,0.3C16.7,9.3,16.9,9.5,17.1,9.5z"
		/>
	<circle class="st1" cx="3.9" cy="14.4" r="0.3"/>
	<path class="st1" d="M6.5,14.8c0.2,0,0.3-0.1,0.3-0.3c0-0.2-0.1-0.3-0.3-0.3c-0.2,0-0.3,0.1-0.3,0.3C6.2,14.6,6.3,14.8,6.5,14.8z"
		/>
	<path class="st1" d="M9.1,14.8c0.2,0,0.3-0.1,0.3-0.3c0-0.2-0.1-0.3-0.3-0.3c-0.2,0-0.3,0.1-0.3,0.3C8.8,14.6,9,14.8,9.1,14.8z"/>
	<path class="st1" d="M11.8,14.8c0.2,0,0.3-0.1,0.3-0.3c0-0.2-0.1-0.3-0.3-0.3c-0.2,0-0.3,0.1-0.3,0.3
		C11.5,14.6,11.6,14.8,11.8,14.8z"/>
	<path class="st1" d="M14.4,14.1c-0.2,0-0.3,0.1-0.3,0.3c0,0.2,0.1,0.3,0.3,0.3c0.2,0,0.3-0.1,0.3-0.3
		C14.7,14.3,14.6,14.1,14.4,14.1z"/>
	<path class="st1" d="M17.1,14.8c0.2,0,0.3-0.1,0.3-0.3c0-0.2-0.1-0.3-0.3-0.3c-0.2,0-0.3,0.1-0.3,0.3
		C16.7,14.6,16.9,14.8,17.1,14.8z"/>
	<path class="st1" d="M3.9,17.4c0.2,0,0.3-0.1,0.3-0.3c0-0.2-0.1-0.3-0.3-0.3c-0.2,0-0.3,0.1-0.3,0.3C3.5,17.3,3.7,17.4,3.9,17.4z"
		/>
	<path class="st1" d="M6.5,17.4c0.2,0,0.3-0.1,0.3-0.3c0-0.2-0.1-0.3-0.3-0.3c-0.2,0-0.3,0.1-0.3,0.3C6.2,17.3,6.3,17.4,6.5,17.4z"
		/>
	<path class="st1" d="M9.1,17.4c0.2,0,0.3-0.1,0.3-0.3c0-0.2-0.1-0.3-0.3-0.3c-0.2,0-0.3,0.1-0.3,0.3C8.8,17.3,9,17.4,9.1,17.4z"/>
	<path class="st1" d="M11.8,17.4c0.2,0,0.3-0.1,0.3-0.3c0-0.2-0.1-0.3-0.3-0.3c-0.2,0-0.3,0.1-0.3,0.3
		C11.5,17.3,11.6,17.4,11.8,17.4z"/>
	<path class="st0" d="M18.3,2.8h-0.8V2.4c0-0.6-0.5-1.2-1.2-1.2c-0.6,0-1.2,0.5-1.2,1.2v0.4H5.9V2.4c0-0.6-0.5-1.2-1.2-1.2
		S3.6,1.8,3.6,2.4v0.4H3.2H2.8c-0.9,0-1.6,0.7-1.6,1.6v13.9c0,0.9,0.7,1.6,1.6,1.6h15.5c0.9,0,1.6-0.7,1.6-1.6V4.3
		C19.8,3.5,19.1,2.8,18.3,2.8z M16,3.6V2.4C16,2.2,16.1,2,16.3,2c0.2,0,0.4,0.2,0.4,0.4v1.6c0,0.2-0.2,0.4-0.4,0.4
		c-0.2,0-0.4-0.2-0.4-0.4V3.6z M4.3,3.6V2.4C4.3,2.2,4.5,2,4.7,2s0.4,0.2,0.4,0.4v1.6c0,0.2-0.2,0.4-0.4,0.4S4.3,4.2,4.3,3.9V3.6z
		 M19.1,18.3c0,0.4-0.3,0.8-0.8,0.8H2.8c-0.4,0-0.8-0.3-0.8-0.8V6.7h17.1V18.3z"/>
</g>
</svg>
