<?xml version="1.0" encoding="utf-8"?>
<!-- Generator: Adobe Illustrator 19.0.0, SVG Export Plug-In . SVG Version: 6.00 Build 0)  -->
<svg version="1.1" id="Capa_1" xmlns="http://www.w3.org/2000/svg" xmlns:xlink="http://www.w3.org/1999/xlink" x="0px" y="0px"
	 viewBox="0 0 285.7 8.9" style="enable-background:new 0 0 285.7 8.9;" xml:space="preserve">
<style type="text/css">
	.st0{fill:#7EAFB0;}
</style>
<path id="XMLID_2_" class="st0" d="M0,8.9V5.1c0.2,0.2,0.4,0.4,0.6,0.6c3.2,3.3,8.6,3.3,11.8,0C16.1,2,20.9,0,26.1,0
	c5.1,0,9.9,2,13.6,5.6C41.1,7.1,42.9,7.8,45,8c2.2,0.2,4.7-0.6,6.5-2.4C55.1,2,59.9,0,65.1,0c5.2,0,10,2,13.6,5.6
	c3.3,3.3,8.6,3.3,11.9,0C94.1,2,99,0,104.1,0c5.2,0,10,2,13.7,5.6c3.2,3.3,8.6,3.3,11.8,0C133.3,2,138.1,0,143.3,0
	c5.1,0,9.9,2,13.6,5.6c3.3,3.3,8.6,3.3,11.9,0C172.3,2,177.2,0,182.3,0s10,2,13.6,5.6c3.3,3.3,8.6,3.3,11.9,0
	C211.4,2,216.3,0,221.4,0c5.2,0,10,2,13.7,5.6c3.2,3.3,8.6,3.3,11.8,0C250.6,2,255.4,0,260.5,0c5.1,0,9.9,2,13.6,5.6
	c3.2,3.1,8.2,3.2,11.5,0.3v3H0z"/>
</svg>
